PathFileType	4	(X/Y/Z)	D:\Share\Shared_Data\Ergonomics\Sit To Stand Pertubation\S3\Unperturbed.trc
DataRate	CameraRate	NumFrames	NumMarkers	Units	OrigDataRate	OrigDataStartFrame	OrigNumFrames	
100	100	17	18	m	100	3509	231
Frame#	Time	R_Thigh			R_ASIS			R_Pelvis			V_Sacral			L_Pelvis			L_ASIS			Clavical			R_Acromium			L_Acromium			Sternum			Torso			R_Thigh_Med			R_Thigh_Lat			R_Shank_Med			R_Shank_Lat			R_Shank			R_Heel			R_Toe			
		X1	Y1	Z1	X2	Y2	Z2	X3	Y3	Z3	X4	Y4	Z4	X5	Y5	Z5	X6	Y6	Z6	X7	Y7	Z7	X8	Y8	Z8	X9	Y9	Z9	X10	Y10	Z10	X11	Y11	Z11	X12	Y12	Z12	X13	Y13	Z13	X14	Y14	Z14	X15	Y15	Z15	X16	Y16	Z16	X17	Y17	Z17	X18	Y18	Z18	

3509	35.08	0.1464369	0.58306903	0.10988588	-0.038740734	0.65343927	0.14341945	-0.143341	0.61975214	0.19710507	-0.25325623	0.60291315	0.013167116	-0.14724847	0.64163348	-0.18638071	-0.04257225	0.65875537	-0.13903073	-0.10859172	1.02958	-0.00013647133	-0.16337805	1.08655	0.17384013	-0.15302443	1.0836128	-0.15368381	-0.078453117	0.95885999	0.0078319907	-0.10214858	1.017588	-0.061123981	0.33285474	0.46956287	0.071679497	0.31558588	0.45009961	0.18924039	0.25891605	0.10776041	0.093381828	0.2347332	0.10004314	0.17258261	0.25622324	0.27441129	0.19448853	0.18053476	0.050621113	0.11926334	0.39756531	0.056370388	0.1372088
3510	35.09	0.14640184	0.58309705	0.10990611	-0.038820396	0.65342841	0.14339632	-0.14338252	0.6197746	0.19711302	-0.25330037	0.60291223	0.013166251	-0.14728793	0.64164038	-0.18638174	-0.042631332	0.65876062	-0.1390135	-0.10854228	1.0295139	-0.00014023194	-0.16334067	1.0865205	0.17383261	-0.15298322	1.0835962	-0.15369069	-0.078443993	0.95879681	0.0078355584	-0.10210561	1.0175445	-0.061122658	0.33281229	0.46959082	0.071704712	0.31553714	0.45011359	0.18925493	0.25890787	0.10776724	0.093388153	0.23474162	0.10005727	0.17258347	0.25619397	0.27442078	0.19450243	0.18053676	0.05062384	0.11925959	0.39756323	0.056375183	0.13720605
3511	35.1	0.14636064	0.58312988	0.10992264	-0.038905609	0.65341278	0.14336719	-0.1434325	0.6197959	0.19712372	-0.25334871	0.60291193	0.013166207	-0.1473374	0.64164667	-0.18638017	-0.042701065	0.65876544	-0.13899899	-0.10846821	1.0294391	-0.00014426331	-0.16326221	1.0864922	0.17382529	-0.15291563	1.0835719	-0.15369939	-0.078416443	0.95872083	0.0078377147	-0.10203808	1.0174913	-0.061121342	0.33276056	0.46962546	0.071721252	0.31548389	0.45013037	0.18926027	0.25889764	0.10777528	0.093394608	0.2347515	0.10007148	0.17258485	0.25616028	0.27443494	0.19451242	0.18053815	0.050634346	0.11926075	0.39756189	0.056381935	0.13720238
3512	35.11	0.14631168	0.58316669	0.10993641	-0.038994942	0.6533927	0.14333565	-0.14349257	0.61981372	0.19713666	-0.25339949	0.6029137	0.013166177	-0.14739566	0.64165112	-0.18637624	-0.042779793	0.65876996	-0.13898859	-0.10836502	1.0293602	-0.00014626306	-0.16314035	1.0864678	0.17381908	-0.15281461	1.0835406	-0.15370891	-0.078365112	0.95863489	0.0078392839	-0.10193906	1.0174302	-0.061119717	0.33269928	0.46966586	0.071727425	0.31542743	0.45015039	0.18925558	0.25888528	0.10778451	0.093401421	0.23476128	0.10008425	0.17258801	0.25612109	0.27445364	0.19451778	0.1805386	0.050652218	0.11926614	0.39756094	0.056390881	0.13719804
3513	35.12	0.14625366	0.58320593	0.10994853	-0.039086571	0.6533689	0.14330602	-0.1435631	0.61982648	0.19715042	-0.2534509	0.60291986	0.013165419	-0.14746066	0.64165289	-0.18637073	-0.042864964	0.65877448	-0.13898308	-0.10822821	1.0292823	-0.00014459705	-0.16297517	1.0864495	0.17381432	-0.15267317	1.0835043	-0.15371849	-0.078284653	0.95854327	0.0078407602	-0.10180273	1.0173629	-0.06111882	0.33262854	0.46971024	0.071721481	0.31536874	0.45017462	0.18923979	0.258871	0.10779453	0.093408669	0.23476999	0.1000947	0.1725938	0.25607574	0.27447626	0.19451775	0.18053801	0.050675316	0.11927437	0.39755984	0.056402142	0.13719336
3514	35.13	0.14618576	0.58324634	0.10995999	-0.039178207	0.65334259	0.14328262	-0.14364325	0.61983472	0.19716356	-0.25350111	0.60293396	0.013163359	-0.14752979	0.64165234	-0.18636491	-0.042953495	0.65877948	-0.1389826	-0.10805348	1.0292107	-0.00013884138	-0.16276808	1.0864399	0.17381075	-0.15248495	1.0834656	-0.15372792	-0.078170601	0.95845056	0.0078423162	-0.10162477	1.0172913	-0.061120361	0.33254935	0.46975638	0.071702164	0.31530838	0.45020364	0.18921208	0.25885464	0.10780473	0.093416031	0.23477687	0.10010275	0.1726021	0.25602405	0.27450177	0.1945116	0.18053612	0.050700722	0.11928416	0.39755795	0.056415569	0.13718866
3515	35.14	0.14610783	0.58328638	0.10997126	-0.039267193	0.6533158	0.14326843	-0.14373068	0.619841	0.19717488	-0.25354868	0.60295978	0.013159828	-0.14759993	0.64165112	-0.18635995	-0.04304216	0.6587854	-0.13898665	-0.10783693	1.0291494	-0.00012980273	-0.16252019	1.0864408	0.17380768	-0.15224451	1.0834279	-0.15373755	-0.078019714	0.9583609	0.0078441005	-0.10140238	1.0172186	-0.06112537	0.33246298	0.46980182	0.071669189	0.31524612	0.45023737	0.18917241	0.25883621	0.10781442	0.093422607	0.23478096	0.10010901	0.17261154	0.25596672	0.27452878	0.19449878	0.1805327	0.05072554	0.11929459	0.39755457	0.056430763	0.13718434
3516	35.15	0.14602057	0.58332465	0.10998222	-0.039350704	0.65329028	0.14326416	-0.14382162	0.61984912	0.19718378	-0.25359225	0.60300104	0.013155144	-0.14766803	0.64165173	-0.18635683	-0.043127968	0.65879297	-0.13899406	-0.10757521	1.0291011	-0.00011891603	-0.16223083	1.0864537	0.17380437	-0.15194743	1.0833955	-0.15374783	-0.07782972	0.95827765	0.0078463302	-0.10113386	1.0171483	-0.061133186	0.33237125	0.46984427	0.071623344	0.31518127	0.45027472	0.1891214	0.25881567	0.10782289	0.093427269	0.23478134	0.10011444	0.1726201	0.25590515	0.27455563	0.19447896	0.18052768	0.050747265	0.11930496	0.39754944	0.056447227	0.13718057
3517	35.16	0.14592561	0.58336011	0.109992	-0.039426052	0.65326819	0.14326802	-0.1439111	0.61986426	0.19719003	-0.25363081	0.60306085	0.013149907	-0.14773112	0.64165741	-0.18635632	-0.043208263	0.65880261	-0.13900333	-0.10726527	1.0290665	-0.00010773996	-0.16189709	1.0864797	0.17380025	-0.15159039	1.0833729	-0.15375887	-0.077598503	0.95820264	0.0078490095	-0.1008176	1.0170852	-0.061141659	0.33227603	0.46988193	0.071566299	0.31511349	0.4503139	0.18906053	0.25879364	0.10782957	0.093429359	0.23477745	0.10011964	0.1726264	0.25584114	0.27458084	0.19445238	0.18052147	0.05076371	0.11931449	0.39754254	0.056464401	0.13717722
3518	35.17	0.14582562	0.58339209	0.10999916	-0.039490841	0.6532511	0.14327652	-0.14399361	0.61989081	0.19719388	-0.25366306	0.60314111	0.013144732	-0.14778651	0.64167151	-0.18635907	-0.043280556	0.65881451	-0.1390126	-0.10690413	1.0290461	-9.7693473e-05	-0.16151469	1.0865199	0.17379489	-0.15117117	1.0833665	-0.15377013	-0.077323349	0.95813641	0.0078516502	-0.10045138	1.0170337	-0.061148544	0.33217953	0.46991345	0.071500237	0.31504297	0.45035217	0.1889919	0.25877106	0.10783411	0.09342881	0.2347692	0.10012452	0.17263013	0.25577655	0.27460309	0.19441985	0.18051457	0.050773434	0.11932223	0.39753391	0.056481712	0.13717387
3519	35.18	0.14572421	0.58342047	0.11000189	-0.039542786	0.65324005	0.14328589	-0.14406393	0.61993243	0.19719608	-0.25368735	0.60324292	0.013140281	-0.14783185	0.64169666	-0.18636505	-0.043342197	0.65882843	-0.13902049	-0.10648868	1.0290393	-8.9404494e-05	-0.16107951	1.0865754	0.17378821	-0.15068863	1.0833812	-0.15378093	-0.077000557	0.95807867	0.0078533378	-0.10003208	1.0169974	-0.061152584	0.33208429	0.46993805	0.071427788	0.31497101	0.45038663	0.18891798	0.25874893	0.10783656	0.093425987	0.23475677	0.10012865	0.17263179	0.25571332	0.27462164	0.19438272	0.18050728	0.050776245	0.11932712	0.39752383	0.056498638	0.13717032
3520	35.19	0.14562518	0.58344556	0.10999837	-0.03957954	0.65323511	0.14329314	-0.14411807	0.6199906	0.19719794	-0.25370163	0.60336688	0.013137475	-0.14786528	0.64173468	-0.1863732	-0.043390072	0.65884406	-0.13902617	-0.10601532	1.0290444	-8.2333013e-05	-0.16058807	1.0866471	0.17378011	-0.15014218	1.0834196	-0.15379169	-0.076626022	0.95802911	0.0078530245	-0.09955632	1.016979	-0.061153831	0.33199283	0.46995587	0.071351921	0.31489975	0.45041516	0.18884125	0.25872818	0.10783733	0.093421394	0.234741	0.10013194	0.1726319	0.255653	0.2746362	0.19434282	0.18049969	0.050773041	0.11932858	0.39751266	0.056514816	0.13716653
3521	35.2	0.14553191	0.58346771	0.1099871	-0.039598553	0.65323596	0.14329666	-0.14415295	0.62006549	0.19720094	-0.25370317	0.60351324	0.013137317	-0.14788541	0.64178619	-0.18638142	-0.043420429	0.65886041	-0.13902931	-0.10547997	1.0290603	-7.5699486e-05	-0.16003671	1.0867354	0.17377043	-0.1495313	1.0834818	-0.1538044	-0.076196205	0.95798779	0.0078498535	-0.099021027	1.0169796	-0.061153488	0.33190732	0.46996814	0.071275452	0.31483194	0.45043744	0.18876431	0.25870959	0.10783704	0.093415634	0.23472342	0.10013471	0.17263077	0.25559673	0.2746474	0.19430199	0.1804921	0.050765236	0.11932668	0.39750098	0.056530071	0.13716258
3522	35.21	0.14544699	0.58348712	0.10996735	-0.039596832	0.65324115	0.14329611	-0.14416626	0.62015564	0.19720648	-0.25368878	0.60368237	0.013140334	-0.14789091	0.64185107	-0.18638766	-0.043429039	0.65887634	-0.13903012	-0.10487845	1.0290854	-6.9477357e-05	-0.15942043	1.0868391	0.17375882	-0.14885434	1.0835648	-0.15382161	-0.075708855	0.95795453	0.0078432522	-0.098423477	1.0169994	-0.061153313	0.33182895	0.46997656	0.071200012	0.31477057	0.45045435	0.18868933	0.25869385	0.10783634	0.093409454	0.23470572	0.1001375	0.17262889	0.25554553	0.27465619	0.19426187	0.18048494	0.050754696	0.11932233	0.39748923	0.056544411	0.13715843
3523	35.22	0.14537238	0.58350305	0.10993941	-0.039570736	0.65324841	0.14329221	-0.14415619	0.62025848	0.19721567	-0.25365511	0.60387488	0.013146168	-0.14788036	0.64192822	-0.18639081	-0.04341177	0.6588905	-0.13902956	-0.10420669	1.0291176	-6.3904874e-05	-0.15873294	1.0869561	0.17374513	-0.14810724	1.083665	-0.15384465	-0.075162361	0.95792792	0.0078326201	-0.097760612	1.0170368	-0.061154629	0.33175824	0.46998276	0.071126007	0.3147182	0.45046765	0.18861784	0.25868097	0.10783578	0.09340374	0.23468965	0.10014088	0.17262686	0.25550035	0.27466412	0.19422375	0.18047861	0.050744114	0.11931732	0.39747778	0.056557964	0.13715417
3524	35.23	0.14530975	0.58351508	0.1099048	-0.039516052	0.65325513	0.14328615	-0.14412138	0.62037183	0.19722903	-0.25359908	0.60409076	0.013153482	-0.14785182	0.64201672	-0.18639091	-0.043365349	0.65890125	-0.13902975	-0.10346054	1.0291554	-5.8611933e-05	-0.15796796	1.0870837	0.17372975	-0.14728331	1.0837778	-0.15387315	-0.0745541	0.95790527	0.0078169537	-0.097028198	1.0170892	-0.061157833	0.3316955	0.4699874	0.071053551	0.31467624	0.45047916	0.1885508	0.25867108	0.10783582	0.09339946	0.23467683	0.10014572	0.17262491	0.25546211	0.27467282	0.19418854	0.18047339	0.050736523	0.11931387	0.39746716	0.056570808	0.13714995
3525	35.24	0.14526036	0.58352234	0.10986594	-0.039428314	0.65325848	0.14327922	-0.14406041	0.62049384	0.19724638	-0.25351808	0.60432947	0.013160345	-0.14780255	0.64211566	-0.18638902	-0.043287724	0.65890741	-0.13903395	-0.10263582	1.0291969	-5.296484e-05	-0.15711974	1.0872189	0.17371339	-0.14637463	1.0838998	-0.15390533	-0.073879951	0.95788336	0.0077950568	-0.096220871	1.0171526	-0.061162731	0.33164206	0.46999069	0.070983658	0.31464523	0.45049078	0.18848897	0.25866394	0.10783682	0.093397408	0.23466849	0.10015277	0.17262283	0.25543172	0.27468375	0.19415681	0.18046945	0.050734203	0.11931353	0.39745776	0.056582771	0.1371459
